<svg xmlns="http://www.w3.org/2000/svg" width="24" height="24" viewBox="0 0 24 24"><defs><style>.a{fill:none;}.b{fill:#fff;}</style></defs><path class="a" d="M0,0H24V24H0Z"/><path class="b" d="M2.1,18.3V22h20V18.3Zm2.6,2.5H3.5V19.6H4.7Zm15.9,0H17.3V19.6h3.3Z"/><path class="b" d="M2.1,13.1v3.7h20V13.1H2.1Zm18.5,2.4H17.3V14.3h3.3Z"/><path class="b" d="M14.1,7.8v3.7h8V7.8Zm2.7,2.4H15.5V9h1.3Zm1.9,0H17.4V9h1.3Zm1.9,0H19.3V9h1.3Z"/><path class="b" d="M14.1,2.5V6.2h3.4V2.5Z"/><path class="b" d="M18.7,2.5V6.2h3.4V2.5Z"/><path class="b" d="M11.9,8.3l-1.1-.8v-1l1.1-.8a.367.367,0,0,0,.1-.3L11,3.7c-.1-.1-.2-.2-.3-.1L9.3,4a5.582,5.582,0,0,0-.8-.5L8.3,2.2c0-.1-.1-.2-.3-.2H6c-.1,0-.3.1-.3.2L5.5,3.5a5.582,5.582,0,0,0-.8.5L3.4,3.5a.192.192,0,0,0-.3.1L2,5.4a.367.367,0,0,0,.1.3l1.1.8v1l-1.1.8a.367.367,0,0,0-.1.3l1,1.7c.1.1.2.2.3.1L4.7,10a4.053,4.053,0,0,0,.9.5l.2,1.3c-.1.1.1.2.2.2H8c.1,0,.2-.1.3-.2l.2-1.3a4.053,4.053,0,0,0,.9-.5l1.3.5a.192.192,0,0,0,.3-.1l1-1.7C12,8.5,12,8.4,11.9,8.3ZM7,8.8A1.793,1.793,0,0,1,5.2,7,1.71,1.71,0,0,1,7,5.3,1.71,1.71,0,0,1,8.8,7,1.793,1.793,0,0,1,7,8.8Z"/></svg>