<?xml version="1.0" encoding="utf-8"?>
<!-- Generator: Adobe Illustrator 25.2.1, SVG Export Plug-In . SVG Version: 6.00 Build 0)  -->
<svg version="1.1" id="Layer_1" xmlns="http://www.w3.org/2000/svg" xmlns:xlink="http://www.w3.org/1999/xlink" x="0px" y="0px"
	 viewBox="0 0 36 36" style="enable-background:new 0 0 36 36;" xml:space="preserve">
<style type="text/css">
	.st0{fill:#FFFFFF;}
</style>
<path class="st0" d="M26.7,29.2v2.6h0.8v-0.7h1.3c0.2,0,0.3,0,0.3,0.1c0,0.1,0,0.2,0,0.3v0.2h0.8v-0.5c0-0.1,0-0.2-0.1-0.3
	c-0.1-0.1-0.3-0.1-0.4-0.1c0.1,0,0.2-0.1,0.3-0.1c0.1,0,0.1-0.1,0.1-0.1c0-0.1,0.1-0.1,0.1-0.2c0-0.1,0-0.2,0-0.3
	c0-0.2,0-0.5-0.2-0.6c-0.2-0.1-0.4-0.2-0.7-0.2L26.7,29.2z M28.6,30.5h-1.2v-0.7h1.4H29c0,0,0.1,0,0.1,0.1c0,0.1,0,0.1,0,0.2
	c0,0.1,0,0.2-0.1,0.3C29,30.4,28.9,30.5,28.6,30.5L28.6,30.5z M10,29.2v2.6h0.8v-0.7h1.3c0.2,0,0.3,0,0.3,0.1c0,0.1,0,0.2,0,0.3v0.2
	h0.8v-0.5c0-0.1,0-0.2-0.1-0.3c-0.1-0.1-0.3-0.1-0.4-0.1c0.1,0,0.2-0.1,0.3-0.1c0.1,0,0.1-0.1,0.1-0.1c0-0.1,0.1-0.1,0.1-0.2
	c0-0.1,0-0.2,0-0.3c0-0.2,0-0.5-0.2-0.6c-0.2-0.1-0.4-0.2-0.7-0.2L10,29.2z M12,30.5h-1.2v-0.7h1.4h0.1c0,0,0.1,0,0.1,0.1
	c0,0.1,0,0.1,0,0.2c0,0.2,0,0.2-0.1,0.3C12.3,30.4,12.2,30.5,12,30.5L12,30.5z M30.4,1.8c2,0,3.6,1.6,3.6,3.6c0,0,0,0,0,0v25.3
	c0,2-1.6,3.5-3.6,3.6H5.6c-2,0-3.6-1.6-3.6-3.6V5.4c0-1.9,1.5-3.5,3.5-3.5c0,0,0,0,0.1,0H30.4z M30.4,35.2c2.5,0,4.5-2.1,4.6-4.6
	V5.4c0-2.5-2-4.6-4.6-4.6c0,0,0,0,0,0H5.6C3.1,0.8,1,2.8,1,5.3c0,0,0,0.1,0,0.1v25.3c0,2.5,2,4.6,4.6,4.6H30.4z M6,27.2h10.1v-23H6
	V27.2z M17.7,9.1l1.7,18.1h10.2L22.7,9.1l4.7-4.9h-3.2L17.7,9.1z M23.2,29.2v2.6h2.9v-0.6H24v-0.5h2v-0.5h-2v-0.4h2.1v-0.6
	L23.2,29.2z M22.5,31.8v-2.6h-1.2l-1,1.7l-1-1.7h-1.2v2.6h0.8v-2l1.1,2h0.6l1.1-2v2L22.5,31.8z M14.8,31.3h1.7l0.2,0.5h0.9l-1.4-2.6
	h-1.1l-1.4,2.6h0.9L14.8,31.3z M15.7,29.7l0.6,1.1h-1.1L15.7,29.7z M7.2,30.2l1.1-1h1.1l-1.5,1.3l1.7,1.3H8.4l-1.2-1H6.8v1H6v-2.6
	h0.8v1L7.2,30.2z"/>
</svg>
