<?xml version="1.0" standalone="no"?><!DOCTYPE svg PUBLIC "-//W3C//DTD SVG 1.1//EN" "http://www.w3.org/Graphics/SVG/1.1/DTD/svg11.dtd"><svg t="1624436195885" class="icon" viewBox="0 0 1024 1024" version="1.1" xmlns="http://www.w3.org/2000/svg" p-id="10759" width="22" height="22" xmlns:xlink="http://www.w3.org/1999/xlink"><defs><style type="text/css"></style></defs><path d="M792 376h-184a16 16 0 0 1-16-16v-200a16 16 0 0 1 32 0v184h168a16 16 0 0 1 0 32zM568 792h-88a16 16 0 0 1-16-16v-192h-64a16.016 16.016 0 0 1-11.352-27.28l123.496-124.232a16 16 0 0 1 11.32-4.72h0.032a16 16 0 0 1 11.304 4.672l124.512 124.232a16 16 0 0 1-11.304 27.328H584v192a16.008 16.008 0 0 1-16 16z m-72-32h56v-192a16 16 0 0 1 16-16h41.312l-85.776-85.584L438.464 552H480a16 16 0 0 1 16 16v192z" fill="#6e6e6e" p-id="10760"></path><path d="M776.04 903.952h-0.072l-496-0.752c-30.856-0.048-55.968-25.192-55.968-56.048V176c0-30.88 25.12-56 56-56h310.072c24.168 0 54.864 13.288 71.4 30.896l142.12 151.336c16.192 17.256 28.408 48.104 28.408 71.76V848c0 14.928-5.84 28.984-16.44 39.568a55.576 55.576 0 0 1-39.52 16.384zM776 856c2.816 0 4.768-1.52 5.648-2.4a7.92 7.92 0 0 0 2.352-5.6v-474.008c0-11.56-7.488-30.472-15.4-38.904l-142.12-151.328c-7.464-7.952-23.568-15.8-34.48-15.8h-312c-4.336 0-8 3.712-8 8.048v671.152c0 4.352 3.64 8.84 8 8.848h496V856z" fill="#6e6e6e" p-id="10761"></path></svg>