<svg class="icon" viewBox="0 0 1024 1024" xmlns="http://www.w3.org/2000/svg" width="24" height="24"><defs><style/></defs><path d="M160.01 0a127.998 127.998 0 0 1 118.72 79.999h461.114a239.997 239.997 0 0 1 12.735 479.674l-12.8.32H336.01a143.998 143.998 0 1 0 0 287.996h409.274a127.998 127.998 0 1 1 0 96.063l-409.274-.064a239.997 239.997 0 0 1 0-479.994h403.835a143.998 143.998 0 0 0 9.855-287.676l-9.855-.32-461.179.064A127.998 127.998 0 1 1 160.011 0zm703.992 831.99a64 64 0 1 0 0 127.998 64 64 0 0 0 0-127.998zM160.011 64a64 64 0 1 0 0 127.998 64 64 0 0 0 0-127.999z"/></svg>