<svg xmlns="http://www.w3.org/2000/svg" width="178.143" height="20" viewBox="0 0 178.143 20"><defs><style>.a{fill:#fff;}</style></defs><g transform="translate(-0.5)"><path class="a" d="M17.429,0l-8,7.571h-3V0H.5V20H6.429V12.357h3L18.071,20h8.643L14.357,9.929,25.429,0Z" transform="translate(0)"/><path class="a" d="M57.371,10c1.357,0,2.143-.143,2.5-.5s.5-1.071.5-2.286a4.605,4.605,0,0,0-.214-1.429,1.03,1.03,0,0,0-.786-.643c-.286-.071-.643-.143-.929-.214H47.729V10ZM59.8,0c2.286,0,3.929.429,4.929,1.357s1.5,2.571,1.5,4.929c0,.786-.071,1.5-.143,2.286a4.508,4.508,0,0,1-.571,1.643,2.257,2.257,0,0,1-1,1,14.207,14.207,0,0,1-2.429.929,5.88,5.88,0,0,1,3,1.071,3.286,3.286,0,0,1,.929,2.714v3.786h-6V17.857a12.378,12.378,0,0,0-.214-2.286c-.143-.571-.929-.857-2.286-.857H47.729v5.143H41.8V0Z" transform="translate(-11.8)"/><path class="a" d="M95.414,3.786l4.143,8.357H91.2ZM91.486,0,80.7,19.929h6.5l1.857-3.571h12.571l1.786,3.571h6.5L99.414,0Z" transform="translate(-22.914)"/><path class="a" d="M150.214,0l-7.357,13.286L135.5,0h-9V20h5.571V4.714L140.429,20h4.786l8.5-15.286V20h5.5V0Z" transform="translate(-36)"/><path class="a" d="M179.5,0V20H201V15.5H185.286V11.929H200V8H185.286V4.5H201V0Z" transform="translate(-51.143)"/><path class="a" d="M231.243,10c1.357,0,2.143-.143,2.5-.5s.5-1.071.5-2.286a4.607,4.607,0,0,0-.214-1.429,1.03,1.03,0,0,0-.786-.643,2.521,2.521,0,0,0-1-.214H221.529V10Zm2.429-10c2.286,0,3.929.429,4.929,1.357s1.5,2.571,1.5,4.857c0,.786-.071,1.5-.143,2.286a4.507,4.507,0,0,1-.571,1.643,2.257,2.257,0,0,1-1,1,14.209,14.209,0,0,1-2.429.929,5.426,5.426,0,0,1,2.929,1.071,3.286,3.286,0,0,1,.929,2.714v3.786h-6V17.857a8.358,8.358,0,0,0-.286-2.286c-.143-.571-.929-.857-2.286-.857h-9.786v5.143H215.6V0Z" transform="translate(-61.457)"/></g></svg>