<?xml version="1.0" encoding="utf-8"?>
<!-- Generator: Adobe Illustrator 23.1.0, SVG Export Plug-In . SVG Version: 6.00 Build 0)  -->
<svg version="1.1" id="Layer_1" xmlns="http://www.w3.org/2000/svg" xmlns:xlink="http://www.w3.org/1999/xlink" x="0px" y="0px"
	 viewBox="0 0 24 24" fill="#fff" xml:space="preserve">

<!--<path id="Path_439" class="st0" d="M0,0h24v24H0V0z"/>-->
<g>
	<path d="M10.2,18.7l-0.6-2.5H6l-0.6,2.5H2L5.7,5.3h4.1l3.8,13.5H10.2z M9,13.2L8.5,11c-0.1-0.5-0.3-1.1-0.4-1.9
		C8,8.4,7.9,7.8,7.8,7.5c0,0.3-0.1,0.8-0.3,1.5c-0.1,0.7-0.4,2.1-0.9,4.2H9z"/>
	<path d="M18.5,5.3H22l-3.7,13.4h-3.6L10.9,5.3h3.5l1.6,6.8c0.3,1.5,0.5,2.6,0.5,3.2c0-0.4,0.1-1,0.2-1.6c0.1-0.6,0.2-1.1,0.3-1.5
		L18.5,5.3z"/>
</g>
</svg>
