<svg xmlns="http://www.w3.org/2000/svg" viewBox="0 0 24 24"><path d="M6 14.4l-.2-.9H4.2l-.2.9H2.5l1.6-4.8h1.7l1.6 4.8H6zm-.5-2l-.2-.8c0-.2-.1-.4-.2-.7-.1-.2-.1-.4-.2-.5 0 .1-.1.3-.1.6-.1.3-.2.8-.4 1.5h1.1zM12 9.6v2.9c0 .6-.2 1.1-.5 1.5-.4.3-.9.5-1.5.5-.7 0-1.2-.2-1.5-.5-.4-.3-.5-.8-.5-1.4v-3h1.3v2.8c0 .3.1.6.2.7.1.2.3.2.6.2s.5-.1.6-.2c.1-.2.2-.4.2-.7V9.6H12zM7.3 6l3.6-3.6L9.5 1l-7 7h19V6zM2.5 18h14.2l-3.6 3.6 1.4 1.4 7-7h-19zm12.6-3.6v-3.7h1.2V9.6h-3.6v1.1h1.1v3.7zm6.4-2.4c0 .8-.2 1.4-.6 1.8-.4.4-1 .6-1.7.6-.8 0-1.3-.2-1.7-.6-.4-.4-.6-1-.6-1.8s.2-1.4.6-1.8c.4-.4 1-.6 1.7-.6.8 0 1.3.2 1.7.6.4.4.6 1 .6 1.8zm-3.3 0c0 .9.3 1.4 1 1.4.3 0 .6-.1.7-.3.2-.2.2-.6.2-1.1 0-.5-.1-.8-.2-1.1-.2-.2-.4-.3-.7-.3-.7 0-1 .5-1 1.4z"/></svg>