<svg class="icon" viewBox="0 0 1024 1024" xmlns="http://www.w3.org/2000/svg" width="24" height="24"><defs><style/></defs><path d="M512 170.667a341.333 341.333 0 1 1 0 682.666c-55.723 0-21.93-39.552-83.925-103.253C368.17 688.64 170.667 725.12 170.667 512A341.333 341.333 0 0 1 512 170.667zm74.667 413.866a64 64 0 1 0 0 128 64 64 0 0 0 0-128zM704 448a42.667 42.667 0 1 0 0 85.333A42.667 42.667 0 0 0 704 448zm-64-106.667a42.667 42.667 0 1 0 0 85.334 42.667 42.667 0 0 0 0-85.334zm-245.333-12.8a42.667 42.667 0 1 0 0 85.334 42.667 42.667 0 0 0 0-85.334zm128-40.533a42.667 42.667 0 1 0 0 85.333 42.667 42.667 0 0 0 0-85.333z"/></svg>