<svg xmlns="http://www.w3.org/2000/svg" viewBox="0 0 24 24"><path d="M21 3H3c-1.1 0-2 .9-2 2v12c0 1.1.9 2 2 2h5v2h8v-2h5c1.1 0 2-.9 2-2V5c0-1.1-.9-2-2-2zm0 14H3V5h18v12z"/><path d="M7.2 13.9H4.1V8.1h3.1v1.3H5.5v.9h1.6v1.3H5.5v1.1h1.7v1.2zm5.3-3c0 1-.2 1.7-.7 2.3-.5.5-1.2.8-2 .8H8V8.1h1.8c.8 0 1.5.2 2 .7s.7 1.2.7 2.1zm-1.5 0c0-.5-.1-.9-.3-1.2s-.5-.4-.9-.4h-.4v3.3h.3c.4 0 .7-.1 1-.4.2-.3.3-.7.3-1.3zm2.1 3V8.1h1.4V14h-1.4zm6.8-3c0 1-.2 1.7-.7 2.3-.5.5-1.2.8-2 .8h-1.7V8.1h1.8c.8 0 1.5.2 2 .7s.6 1.2.6 2.1zm-1.5 0c0-.5-.1-.9-.3-1.2-.2-.3-.5-.4-.9-.4h-.4v3.3h.3c.4 0 .8-.1 1-.4.2-.3.3-.7.3-1.3z"/></svg>