<svg class="icon" viewBox="0 0 1024 1024" xmlns="http://www.w3.org/2000/svg" width="24" height="24"><defs><style/></defs><path d="M536.934 346.368a35.098 35.098 0 0 0-49.868 0L346.342 487.091a35.2 35.2 0 1 0 49.767 49.767l80.691-80.692V652.8a35.2 35.2 0 0 0 70.4 0V456.192l80.691 80.666a35.2 35.2 0 1 0 49.767-49.792L536.934 346.342zM969.6 582.4h-35.2V441.6h35.2a35.2 35.2 0 0 0 0-70.4h-35.2V336c0-135.86-110.54-246.4-246.4-246.4h-35.2V54.4a35.2 35.2 0 0 0-70.4 0v35.2H441.6V54.4a35.2 35.2 0 0 0-70.4 0v35.2H336C200.14 89.6 89.6 200.14 89.6 336v35.2H54.4a35.2 35.2 0 0 0 0 70.4h35.2v140.8H54.4a35.2 35.2 0 0 0 0 70.4h35.2V688c0 135.86 110.54 246.4 246.4 246.4h35.2v35.2a35.2 35.2 0 0 0 70.4 0v-35.2h140.8v35.2a35.2 35.2 0 0 0 70.4 0v-35.2H688c135.86 0 246.4-110.54 246.4-246.4v-35.2h35.2a35.2 35.2 0 0 0 0-70.4zM864 688a176.205 176.205 0 0 1-176 176H336a176.205 176.205 0 0 1-176-176V336a176.205 176.205 0 0 1 176-176h352a176.205 176.205 0 0 1 176 176v352z"/></svg>