<svg class="icon" viewBox="0 0 1024 1024" xmlns="http://www.w3.org/2000/svg" width="24" height="24"><defs><style/></defs><path d="M411.08 764.6V612.98H259.64a151.56 151.56 0 0 0 0 303 151.32 151.32 0 0 0 151.44-151.5zm75.72 0a227.4 227.4 0 1 1-227.28-227.52h227.4v227.4zm126.36 0V612.98H764.6a151.44 151.44 0 0 1 151.44 151.5 151.44 151.44 0 1 1-302.88 0zm-75.72 0a227.4 227.4 0 1 0 227.34-227.46H537.32v227.4zM411.08 259.4v151.56H259.64a151.56 151.56 0 0 1 0-303A151.32 151.32 0 0 1 411.08 259.4zm75.72 0A227.4 227.4 0 0 0 259.52 32 227.16 227.16 0 0 0 32.3 259.4a227.28 227.28 0 0 0 227.34 227.46h227.4v-227.4h-.24zm126.36 0v151.56H764.6a151.44 151.44 0 1 0 0-303A151.32 151.32 0 0 0 613.16 259.4zm-75.72 0a227.4 227.4 0 1 1 227.34 227.46H537.32v-227.4z"/></svg>