<svg xmlns="http://www.w3.org/2000/svg" width="24" height="24"><path class="b" d="M11.9 8.3l-1.1-.8v-1l1.1-.8a.367.367 0 0 0 .1-.3l-1-1.7c-.1-.1-.2-.2-.3-.1L9.3 4a5.582 5.582 0 0 0-.8-.5l-.2-1.3c0-.1-.1-.2-.3-.2H6c-.1 0-.3.1-.3.2l-.2 1.3a5.582 5.582 0 0 0-.8.5l-1.3-.5a.192.192 0 0 0-.3.1L2 5.4a.367.367 0 0 0 .1.3l1.1.8v1l-1.1.8a.367.367 0 0 0-.1.3l1 1.7c.1.1.2.2.3.1l1.4-.4a4.053 4.053 0 0 0 .9.5l.2 1.3c-.1.1.1.2.2.2h2c.1 0 .2-.1.3-.2l.2-1.3a4.053 4.053 0 0 0 .9-.5l1.3.5a.192.192 0 0 0 .3-.1l1-1.7c0-.2 0-.3-.1-.4zM7 8.8A1.793 1.793 0 0 1 5.2 7 1.71 1.71 0 0 1 7 5.3 1.71 1.71 0 0 1 8.8 7 1.793 1.793 0 0 1 7 8.8z"/><path class="b" d="M12 2h-.8a7.008 7.008 0 0 1 1.9 2.6 17.344 17.344 0 0 1 1.5 2c-.4.1-.7.2-1.1.3a4.1 4.1 0 0 1-.1 1.1 4.671 4.671 0 0 0 1.7-.3 9.434 9.434 0 0 1 1.2 3.8h-3.8v-1.1a6.61 6.61 0 0 1-2.2 2.2h1.1v3.3a11.933 11.933 0 0 0-2.6.5 9.979 9.979 0 0 1-1-2.9c-.3 0-.5.1-.8.1h-.3a11.655 11.655 0 0 0 1.1 3.3 17.377 17.377 0 0 0-1.9 1 8.292 8.292 0 0 1-2.3-5.2c-.6-.5-1.1-1-1.6-1.5v.8A10 10 0 1 0 12 2zM6.8 18.5c.5-.3 1.1-.6 1.6-.9a18.081 18.081 0 0 0 1.9 2.5 7.489 7.489 0 0 1-3.5-1.6zm4.7 1.4a11.727 11.727 0 0 1-2-2.6 7.869 7.869 0 0 1 2-.4zm2.3-16.1a8.627 8.627 0 0 1 3.5 1.6c-.5.3-1.1.6-1.6.9-.7-1-1.4-1.8-1.9-2.5zm2.4 3.5a17.377 17.377 0 0 0 1.9-1 8.321 8.321 0 0 1 2.3 5.3h-3a10.864 10.864 0 0 0-1.2-4.3zm-3.7 5.2h3.8a9.434 9.434 0 0 1-1.2 3.8 7.985 7.985 0 0 0-2.6-.5zm0 4.4a6.465 6.465 0 0 1 2 .4 24.2 24.2 0 0 1-2 2.6zm1.3 3.3a20.1 20.1 0 0 0 1.9-2.5 6.467 6.467 0 0 1 1.6.9 12.252 12.252 0 0 1-3.5 1.6zm4.2-2.4a8.707 8.707 0 0 0-1.9-1 11.391 11.391 0 0 0 1.2-4.2h3a7.8 7.8 0 0 1-2.3 5.2z"/></svg>