<svg class="icon" viewBox="0 0 1194 1024" xmlns="http://www.w3.org/2000/svg" width="27.984" height="24"><defs><style/></defs><path d="M1152 0H42.667A42.667 42.667 0 0 0 0 42.667V704a42.667 42.667 0 0 0 42.667 42.667h506.709V896H320a21.333 21.333 0 0 0-21.333 21.333v64c0 5.888 4.778 10.667 10.666 10.667h576A10.667 10.667 0 0 0 896 981.333v-64A21.333 21.333 0 0 0 874.667 896H645.29V746.667H1152A42.667 42.667 0 0 0 1194.667 704V42.667A42.667 42.667 0 0 0 1152 0zm-53.333 650.667H96V96h1002.667v554.667z"/></svg>