<svg class="icon" viewBox="0 0 1024 1024" xmlns="http://www.w3.org/2000/svg" width="24" height="24"><defs><style/></defs><path d="M325.248 352a32 32 0 0 1 11.008 43.968c-15.808 26.304-31.104 55.04-45.76 85.888-26.24 55.68-45.632 108.8-58.496 158.464a160 160 0 1 1-68.608 11.584l-3.84 18.944c12.8-66.816 36.864-139.52 73.088-216.32 15.616-32.832 31.872-63.36 48.704-91.52a32 32 0 0 1 43.904-10.944zm361.6 334.848a160 160 0 1 1 25.024 246.72L728 929.28c-55.936 15.808-122.624 24.512-199.488 24.512-28.224 0-55.488-1.088-81.664-3.328a32 32 0 1 1 5.376-63.744c24.32 2.048 49.856 3.072 76.288 3.072 49.088 0 93.312-3.84 132.48-10.816a159.808 159.808 0 0 1 25.856-192.128zM291.84 732.16a95.872 95.872 0 0 0-88.768-25.856 25.536 25.536 0 0 1-7.936 2.368c-14.272 4.288-27.712 12.16-39.04 23.488a96 96 0 1 0 135.744 0zm568.704-6.656a96 96 0 0 0-124.736 145.92 24.96 24.96 0 0 1 7.104 5.504c37.44 28.16 90.88 25.024 124.928-9.088a96 96 0 0 0 0-135.68zM512 64a160 160 0 0 1 156.288 194.432l-11.392-13.76a836.608 836.608 0 0 1 95.296 141.568c25.536 46.848 47.872 96.704 66.24 147.072a32 32 0 0 1-60.096 21.952c-17.28-47.424-38.4-94.4-62.336-138.432a852.608 852.608 0 0 0-58.688-93.568A159.296 159.296 0 0 1 512 384a160 160 0 0 1 0-320zm0 64a96 96 0 1 0 89.28 131.328l1.088-4.48a31.872 31.872 0 0 1 1.792-4.16A96 96 0 0 0 512 128z"/></svg>