<svg class="icon" viewBox="0 0 1316 1024" xmlns="http://www.w3.org/2000/svg" width="30.844" height="24"><defs><style/></defs><path d="M1307.429 459.995c5.705 2.853 9.142 9.143 9.142 15.434s-3.437 12.58-9.142 15.433L1124.57 600.576a17.189 17.189 0 0 1-9.142 2.853 18.066 18.066 0 0 1-9.143-2.304 18.286 18.286 0 0 1-9.143-16.019v-73.143H606.866c18.286 28.563 33.72 62.282 47.433 94.282 27.429 61.696 55.443 125.147 95.415 125.147h54.857v-54.857c0-10.277 8.01-18.286 18.286-18.286h182.857c10.277 0 18.286 8.01 18.286 18.286v182.857c0 10.277-8.01 18.286-18.286 18.286H822.857a18.066 18.066 0 0 1-18.286-18.286v-54.857h-54.857c-87.442 0-126.866-89.71-162.304-168.558-26.843-61.147-54.857-124.014-93.696-124.014H288c-16.567 62.867-73.728 109.715-141.714 109.715C65.719 621.678 0 555.958 0 475.392s65.719-146.286 146.286-146.286c67.986 0 125.147 46.848 141.714 109.715h59.429c38.838 0 66.852-62.867 93.696-124.014 35.437-78.848 74.861-168.558 162.304-168.558h61.147A109.531 109.531 0 0 1 768 73.106a109.75 109.75 0 0 1 0 219.429 109.495 109.495 0 0 1-103.424-73.143h-61.147c-40.01 0-67.987 63.415-95.415 125.147-13.715 32-29.148 65.72-47.433 94.282h636.562v-73.143c0-6.84 3.438-12.58 9.143-16.019s13.129-2.852 18.285.586z"/></svg>